<?xml version="1.0" encoding="UTF-8" standalone="no"?>
<svg
   version="1.1"
   id="svg1"
   sodipodi:docname="Shahadah-1.svg"
   width="722.34741"
   height="702.59668"
   inkscape:version="1.3 (0e150ed6c4, 2023-07-21)"
   xmlns:inkscape="http://www.inkscape.org/namespaces/inkscape"
   xmlns:sodipodi="http://sodipodi.sourceforge.net/DTD/sodipodi-0.dtd"
   xmlns="http://www.w3.org/2000/svg"
   xmlns:svg="http://www.w3.org/2000/svg">
  <defs
     id="defs1" />
  <sodipodi:namedview
     id="namedview1"
     pagecolor="#ffffff"
     bordercolor="#666666"
     borderopacity="1.0"
     inkscape:showpageshadow="2"
     inkscape:pageopacity="0.0"
     inkscape:pagecheckerboard="0"
     inkscape:deskcolor="#d1d1d1"
     inkscape:zoom="1.1742156"
     inkscape:cx="361.09211"
     inkscape:cy="351.29834"
     inkscape:window-width="1920"
     inkscape:window-height="1007"
     inkscape:window-x="-9"
     inkscape:window-y="-9"
     inkscape:window-maximized="1"
     inkscape:current-layer="svg1" />
  <title
     id="title1">Shahadah</title>
  <path
     fill="#28a745"
     d="m 106.7,567.2 c -1.3,4.5 -2.2,9.2 -4.1,13.4 -1,2.2 -4.2,5.6 -5.5,5.2 -3,-1 -5.6,-3 -7.2,-5.8 -3.3,-5.5 -2.3,-11.9 -0.9,-17.7 2.2,-9 5.2,-17.7 7.9,-26.5 l 1.2,0.3 c -1.2,4 -2.6,7.9 -3.6,11.9 -1.6,6.7 -4.6,13.2 -3.3,20.5 0.7,4 4.3,9.5 7.1,9 4,-0.7 6,-3.6 6.4,-7.7 0.3,-1 0.7,-1.9 1.3,-2.8 z m 29.5,-398.1 c -1.5,4 -2.5,7.7 -4.2,11 -1.4,2.7 -5.6,2.2 -7,-1.1 -1.4,-3.3 -2.6,-7.3 -2.2,-10.8 0.8,-7.2 2.8,-14.3 4.2,-21.4 l 1.5,0.4 c -1.1,4.4 -2.4,8.9 -3.2,13.4 -0.5,2.5 -0.4,5.1 0.3,7.5 1,2.2 2.7,3.9 4.9,4.9 1.2,0.2 3.3,-2.2 5.7,-3.9 z M 14.8,299.5 c -0.8,2.2 -1.5,4.5 -2.5,6.6 -2.1,4.6 -4.5,9.1 -6.5,13.7 -0.6,1.6 -0.7,3.3 -0.3,4.9 0.5,1.5 1.8,3.4 3.2,3.8 1,0.3 2.6,-1.5 3.9,-2.5 0.6,-0.4 0.9,-1.1 1.9,-1.5 -1,3.2 -2.2,6.4 -3.1,9.6 -0.9,3.2 -3,6.1 -6.1,5 -2.4,-0.8 -5.3,-4.3 -5.3,-6.6 0.1,-4.9 1.5,-10 3.2,-14.7 2.1,-5.5 4.4,-10.9 7.1,-16.2 0.6,-1.2 1.8,-2.2 2.8,-3.3 z M 172.7,52.2 c -1.5,4.1 -3.6,8 -4.4,12.2 -0.5,3.1 -0.2,6.4 1,9.3 0.5,1.4 3.5,1.8 5.9,2.9 -0.3,1 -0.7,1.9 -1.2,2.8 -1.4,1.7 -2.8,3.3 -4.4,4.8 -1.6,-2 -4.4,-3.8 -4.6,-5.9 -0.9,-9.5 2.8,-18.1 6.3,-26.6 z m 0.1,516.8 c 18.8,-12.6 38.3,-24.4 52.8,-43.1 -3.6,-2.3 -6.3,-4.4 -9.2,-5.9 -4.8,-2.5 -5.6,-6.5 -4.6,-11.1 1.1,-5.6 2.8,-11.2 8.6,-14 5.3,-2.6 9.4,-0.9 10.1,5 0.6,4.8 -0.2,9.7 -0.1,14.6 0,1.4 1,2.8 1.5,4.3 0,0.1 0.3,0.1 0.4,0.2 8.4,4.9 8.4,4.9 6.9,14.6 l -11.4,-7.1 c -3.8,5.4 -6.8,11 -11.1,15.4 -15.3,15.8 -32.7,28.8 -53,37.8 -7,3.1 -13.4,7.6 -20,11.4 -0.9,0.6 -2,0.6 -3,0.2 4.8,-3.9 9.7,-7.6 14.3,-11.6 11.5,-10.1 23.7,-19.7 30.6,-34 2.3,-4.8 2.1,-9.5 -1.1,-13.4 -1.6,-1.9 -5.4,-3.7 -7.4,-3.1 -3.8,1.2 -8.5,2.8 -9.1,8 -0.1,1.1 1.4,2.5 2.3,3.6 4.7,5.4 6.5,11.4 5.1,18.1 l -9.2,-12.4 c -0.4,-0.5 -0.8,-1 -1.1,-1.6 -2.5,-7.6 2.6,-20 9.7,-24 6.9,-3.8 13.5,1.1 14.1,10 1,14.5 -3.9,26.5 -14.2,36.5 -1,0.4 -1.4,1 -1.9,1.6 z m 55.6,-51.6 c -0.4,-6.1 0.1,-12 -5,-14.6 -3.6,-1.8 -6.9,1.5 -9.5,5.6 z M 189.9,355.6 c 2.6,8.4 3.2,8.8 12.3,7.6 l -0.7,-11.9 c 4.9,5.7 4.9,14.1 1,18.7 -3,3.5 -6.6,3.4 -13.8,-0.7 -0.6,1.9 -1.3,3.6 -1.8,5.4 -2.4,7.2 -7.5,9.6 -14.7,8 -3,-0.7 -7.1,-0.5 -9.7,1 -6.9,4.1 -14.1,8.4 -19.5,14.1 -17.1,18.1 -38.7,27.1 -62.2,32.6 -0.5,0.1 -1,-0.1 -1.9,-1 3.4,-1.6 6.7,-3.3 10.1,-4.7 16.5,-6.8 32.3,-14.9 45.9,-26.7 8.4,-7.3 17.1,-14.3 26,-21 4,-3.3 9.5,-4.2 14.4,-2.6 4.9,1.6 11.1,-3.2 12.3,-8.9 0.7,-3.3 1.5,-6.6 2.3,-9.9 z m 18.3,82 c -0.1,4.6 -0.9,8 -5.4,10.1 -21.8,10.3 -43.5,20.7 -65.2,31.2 -15.5,7.5 -30.8,15.3 -46.2,23 -0.8,0.4 -1.6,0.7 -2.5,1.1 -0.1,-9.8 7.8,-12.1 14.2,-15.2 22,-10.6 44.4,-20.6 66.5,-31.1 12.8,-6.1 25.4,-12.6 38.6,-19.1 z m 13.7,211 c -2.2,5.3 -4.1,10.6 -6.6,15.8 -1.8,3.9 -4.7,3.4 -7.5,0.8 -4.8,-4.5 -7.5,-10.2 -6,-16.5 2.9,-12.1 6.8,-24 10.3,-35.9 l 1.9,0.6 c -2.2,6.6 -4.7,13 -6.4,19.7 -1.3,5.3 -2.1,10.7 -2.1,16.1 0,2.3 2.1,5 3.9,7 2.4,2.7 5.9,2.1 7.9,-0.9 0.7,-1.1 1.3,-2.3 1.7,-3.5 0.4,-1.2 0.7,-2.4 1,-3.6 z M 241.5,19.3 c 0.3,1.8 0.6,3.6 0.9,5.4 0.4,3.1 0.4,6.3 1.1,9.3 1.2,5 5.1,7.7 8.8,6.5 3.9,-1.3 5.8,-6.2 3.9,-10.8 -2.1,-5.1 -3.4,-10.2 -0.4,-16 1.5,5 3.2,10 4.6,15 1.4,5.3 4.3,7.4 9.6,7.1 3.2,-0.2 4.3,-1.2 2.7,-4.3 -1.5,-2.7 -2.8,-5.6 -4,-8.5 -1.1,-3.1 -1.8,-6.4 -2,-9.7 4.5,6.9 9.1,13.8 8.6,22.4 -0.2,3.2 -0.5,7.1 -4.5,7.9 -3.6,0.9 -7.4,-0.7 -9.2,-4 -0.7,-1.3 -1.7,-2.4 -3.1,-4.4 -1,3.1 -1.3,5.9 -2.7,8 -1.4,2.1 -3.6,4.8 -5.6,5 -2,0.2 -5.8,-1.6 -6.8,-3.5 -3.8,-7.9 -3.7,-16.5 -3.8,-25 z m 3,598.3 c -1.6,-3.7 1.2,-13.5 4.6,-14.4 1.9,-0.5 4.5,0.4 6.4,1.3 1.9,0.9 3.6,2.8 5.4,4.2 4.9,4.1 4.9,4.1 2.8,13.3 -5,0.8 -10,1.5 -15,2.4 -6,1.2 -7.9,4.2 -6.4,10.2 2.5,10.3 5.2,20.6 7.4,30.9 1.1,5.1 1.1,10.5 1.6,15.7 -0.1,0.8 -0.4,1.6 -0.8,2.4 -3.4,-14.6 -6.9,-29.2 -10.1,-43.8 -1.8,-7.8 -1.1,-15.5 4.1,-22.2 l 9,-2.6 0.3,-1.2 c -1.8,-0.7 -4.3,-2.5 -5.2,-2 -1.8,1.2 -2.8,3.8 -4.1,5.8 z m 11.1,-256.3 c -1.1,8.9 -2.6,17.7 -3,26.6 -0.1,2.4 2.4,5.5 4.6,7.3 0.7,0.6 4,-2 6.3,-3.2 -0.6,2.2 -0.9,5.1 -2.2,7.6 -1,1.9 -3.6,4.7 -5,4.4 -2.1,-0.4 -4.9,-2.8 -5.4,-4.8 -1.2,-4.5 -1.6,-9.3 -1.1,-13.9 1.3,-8.3 3.6,-16.4 5.5,-24.5 z m 30.2,-266 c -1.2,7.7 -2.9,15.3 -3.5,23 -0.2,4.2 0.5,8.4 1.9,12.3 0.6,1.8 3.6,3.9 5.4,3.8 1.8,-0.1 3.6,-2.7 5.2,-4.4 0.5,-0.8 0.9,-1.7 1.2,-2.6 l 1.4,0.5 c -1.7,4.4 -3,9.1 -5.3,13.2 -1.9,3.3 -5.3,3.6 -7.8,0.4 -1.9,-2.4 -4.1,-5.2 -4.4,-8.1 -1.3,-13.2 1.5,-25.9 5.9,-38.1 z m 10.9,584.6 c 0,-5.6 -0.4,-11.3 0.1,-16.8 0.5,-4.4 1.4,-8.6 2.7,-12.8 0.8,-2.9 3.1,-5.6 6.1,-4.3 2.5,1.1 4.5,4 5.7,6.5 0.9,1.8 0.2,4.4 0.2,6.8 -1,-0.3 -1.4,-0.3 -1.5,-0.5 -1.7,-2.8 -4.2,-5.9 -7.4,-4 -2.1,1.3 -3.8,5 -4,7.8 -0.5,7 -0.1,14 -0.2,21 0,3.2 -0.7,6.3 -1.9,9.3 -2.6,-4.8 -5.2,-9.6 -7.8,-14.4 -2.7,-5.5 -7.7,-9.6 -13.6,-11.1 -5.4,-1.5 -7.6,-8.9 -4,-13.2 2.1,-2.5 5,-1.5 6.9,0.7 4.6,5.5 9.1,11.2 13.4,17 1.8,2.5 2.9,5.4 4.3,8.2 z m 8.4,-245.6 c 1.4,5.3 2.9,10.6 4.3,16 1.9,7.5 8,10.7 14,7.4 l -7.3,-24.7 2,-0.6 c 2.5,9.3 9.6,17.3 7.4,28 -0.7,3.2 -0.3,7.2 -4.4,7.9 -4.5,0.7 -8.4,-1.2 -10.6,-5.5 -0.5,-1 -1.2,-1.9 -2.2,-3.6 -1.1,3.4 -1.7,6.5 -3.1,8.9 -1.2,2.1 -4.1,5.3 -5.3,4.9 -3.3,-1.2 -6.2,-3.2 -8.5,-5.8 -1.3,-1.5 -1.2,-4.3 -1.5,-6.6 -0.7,-4.4 -1.5,-8.7 -1.8,-13.1 0,-2.8 0.7,-5.5 2.2,-7.8 0.5,2.7 1,5.4 1.4,8.2 0.4,3.4 0.4,6.9 1.2,10.3 0.9,3.8 3.7,6.5 7.7,6.3 4,-0.2 5.5,-3.9 5.3,-7.2 -0.1,-4.2 -1.5,-8.3 -2.1,-12.5 -0.5,-3.4 -0.5,-6.9 -0.8,-10.4 z m 8.5,-405.4 c -1,2.9 -2.3,5.7 -3.6,8.5 -0.8,1.5 -3.2,3.9 -3.9,3.6 -2.2,-1 -5.4,-2.7 -5.7,-4.6 -0.8,-5.1 -1,-10.3 -0.5,-15.4 0.2,-3.1 1.9,-6.1 2.9,-8.9 -0.5,4.4 -1.2,9 -1.4,13.6 -0.2,3.7 1.9,6.7 5.5,6.9 2.2,-0.1 4.5,-2.4 6.7,-3.7 z m 57,62 c 0.6,-4.9 2.7,-7.8 7.1,-9.9 15.9,-7.9 31.6,-16.2 47.8,-24.7 -0.2,5 -2,7.3 -5.9,9.2 -16.3,8.1 -32.4,16.7 -49,25.4 z m 7.9,507 c -2.1,6.1 -4.7,12.1 -6.2,18.3 -0.7,3.6 -0.6,7.4 0.3,11 0.4,1.8 2.8,3.7 4.7,4.3 1,0.3 2.9,-1.9 4.2,-3.3 0.8,-0.8 1.1,-2.2 2.6,-2.9 -1.6,4 -2.9,8.2 -5.1,11.8 -3,4.9 -7.6,4.4 -9.2,-1.3 -1.5,-4.8 -1.7,-9.8 -0.8,-14.7 2,-8.1 5.4,-15.8 8.3,-23.6 z M 401.2,34.2 c -1.9,4.6 -3.1,9.8 -5.9,13.6 -9.6,12.9 -21.1,23.7 -35.1,31.7 -2.7,1.5 -4.2,3.6 -3.8,7.1 1.8,15.5 3.5,31.1 5,46.6 0.9,8.7 1.4,17.4 2.1,26.2 0.7,9 1.4,18.1 2.1,27.1 0,0.6 0.6,1.1 1.5,2.5 1.8,-2.4 3.5,-4.3 4.6,-6.4 6.2,-12 8,-25.2 10.1,-38.3 2.7,-17.5 8.6,-34.4 17.2,-49.9 2.2,-4 5.8,-7.2 9.1,-10.5 2.1,-2.1 4.8,-2.3 5.3,1.5 0.7,4.4 1.3,8.9 0.9,13.3 -0.8,8.8 -2.6,17.5 -3.6,26.3 -1.5,13.1 -3.2,26.4 1.8,39.2 4.6,11.6 14.3,20.5 29.3,19.2 -0.4,-7.3 -0.6,-14.7 -1.1,-22 -0.5,-6.6 -1.5,-13.1 -1.9,-19.7 -0.8,-12.2 -1.3,-24.4 -2.1,-36.6 -1.3,-21.8 -2.7,-43.6 -4,-65.4 -0.1,-1.8 -0.2,-3.9 -1.2,-5.3 -3.4,-4.7 -1.9,-9 0,-13.7 2.2,-5.2 3.6,-10.7 5.5,-16.5 7,10.1 24,64.3 22.8,72.6 -5.4,-3.5 -6.9,-9.4 -10.9,-13.9 -0.9,9.4 0.5,18.6 1.4,27.9 0.9,9.7 1.4,19.4 2.1,29.2 0.7,9.6 1.3,19.1 2,28.7 0.7,9.6 1.7,19.2 2.6,29.7 12.9,-8.1 20.7,-18.5 23.5,-32.2 2.9,-13.9 1,-27.8 -1.4,-41.7 -1.1,-6.4 -3.3,-12.9 -3.2,-19.3 0.1,-5.5 2.5,-11 4.2,-16.5 0.9,-3 2.2,-5.8 3.3,-8.7 -8,-2.1 -10.8,-5.8 -10.8,-14.2 0,-4.8 -0.3,-9.7 -0.1,-14.5 0.2,-2.5 0.6,-5 1.1,-7.4 l 1.8,0.1 c 0,5.5 -0.3,11 0.1,16.5 0.2,2.8 1.1,6 2.8,8.1 1.8,1.6 4.2,2.3 6.5,1.8 2.3,-1.1 4,-3.1 4.6,-5.5 0.6,-3.1 -0.5,-6.5 -0.5,-9.8 0,-4.2 0.3,-8.4 0.5,-12.6 l 2,-0.1 c 0.6,4.5 1.1,9.1 2,13.5 0.7,3.7 1.7,7.3 3.1,10.8 1.2,2.9 7.2,4.4 9.6,2.6 0.7,-0.5 0.9,-2.5 0.6,-3.6 -1.2,-4.4 -2.8,-8.7 -3.9,-13.2 -0.3,-2.2 -0.2,-4.4 0.4,-6.5 3.6,8.3 8.5,16.2 5.2,25.9 -0.9,2.7 -0.9,6.2 -5,6.5 -3.8,0.3 -7.4,-1.6 -9.2,-4.9 -1.2,-2.2 -2.2,-4.5 -3.1,-6.8 -1.6,3.6 -2.5,7.3 -4.7,10 -3.2,4 0.2,6.7 0.9,9.8 3.7,17 7.6,33.9 8.3,51.5 0.5,11.7 2.5,23.5 4.9,35 2.5,12.4 17.9,24.6 32.1,23.9 5.7,-0.3 11,-0.8 16.1,-3.7 4.2,-2.4 4.6,-5.6 3.5,-9.6 -3.9,-14.2 -8,-28.3 -11.7,-42.5 -3.5,-14 -7,-27.9 -9.5,-42.1 -0.8,-4.7 1.2,-10 2.5,-14.8 2.1,-7.5 4.7,-14.9 7.3,-23.2 12.6,9 24.5,17.5 36.4,26.1 23.7,17.2 44.5,37.5 64.5,58.7 6.9,7.4 12.5,16.1 18.7,24.1 14.1,18.3 24.3,38.9 34,59.8 10.8,23.1 17.7,47.4 21.8,72.5 2.1,13 4,26 4.9,39.1 1,14.1 1.7,28.2 0.9,42.3 -1.2,23.6 -5.4,47 -12.6,69.5 -6.3,19.5 -14.8,38.3 -25.1,56 -1.4,2.5 -3.3,4.8 -5.5,6.7 0.1,-1.5 0.4,-3.1 0.9,-4.5 6.1,-14 13.1,-27.6 18.3,-41.9 4.4,-12.6 7.9,-25.6 10.4,-38.8 4,-19.5 5.3,-39.4 4,-59.2 -1.3,-18.7 -2.6,-37.5 -6.1,-55.9 -3.5,-18.1 -9.8,-35.6 -14.9,-53.3 -0.4,-1.4 -1.6,-2.7 -3.2,-5.3 -2.2,7.4 -3.2,13.8 -6,19.2 -4.9,9.4 -10.9,18.3 -16.4,27.3 -0.9,1.4 -1.8,2.7 -2.9,4 -4.1,4.8 -6.4,9.7 -5.8,16.8 1.2,13.9 0.7,27.9 1.3,41.9 0.8,18 2,36 2.9,54 0.4,8.5 0.7,17.1 1,25.6 0.4,11.4 1,22.9 1,34.3 0,24 -1.5,47.8 -7,71.3 -6.3,26.5 -16.9,50.8 -38.8,68.1 -9.1,7.3 -20.1,12.4 -30.7,17.7 -12.9,6.4 -26.2,11.9 -39.3,17.8 -5.8,2.6 -11.5,5.2 -17.2,7.8 l -1,-1.5 c 3.2,-2.5 6.2,-5.3 9.6,-7.5 16.1,-10.7 32.8,-20.6 48.3,-32.1 18.5,-13.7 37.4,-27.4 50.2,-47.3 6.4,-9.9 11.5,-20.1 11.3,-32.5 -0.2,-14.1 0.8,-28.2 0.8,-42.3 0,-15.6 -0.5,-31.2 -1,-46.8 -0.5,-14.8 -1.3,-29.5 -2,-44.2 -1,-19.9 -2,-39.9 -3,-59.8 -0.2,-4.2 -0.8,-8.3 -1.2,-13.6 -5.5,6.9 -10.4,13.1 -15.3,19.3 -8.3,10.6 -16.2,21.5 -25.1,31.5 -4.3,4.8 -3.6,9.4 -3.2,14.6 0.1,1.1 0.5,2.2 0.6,3.4 0.4,14.3 0.6,28.6 1,42.9 0.2,6 -0.3,12.2 1.3,17.8 1.4,4.8 5.2,8.9 8.2,13.2 11.4,16.5 22.8,32.9 27,53 2.4,11.4 3.8,22.8 1.5,34.3 -0.3,0.8 -0.7,1.6 -1.2,2.4 -4.4,-11.8 -7.9,-23.8 -13.3,-34.9 -5.4,-11.1 -13,-21.5 -19.6,-32.1 l -1.6,0.7 c -0.1,1.4 -0.3,2.8 -0.3,4.2 0,15.5 0.5,31 -0.2,46.5 -0.7,15.2 -1.4,30.5 -6.8,45.1 -1.1,3 -2.7,5.8 -4,8.8 l -1.3,-0.2 c -0.2,-1.1 -0.3,-2.3 -0.4,-3.4 0,-11.2 0.1,-22.3 0,-33.5 -0.3,-24.6 -0.7,-49.1 -1.1,-73.7 -0.1,-4.6 0.1,-9.4 -1.1,-13.8 -0.9,-3.4 -3.5,-6.5 -5.8,-9.4 -8.2,-9.9 -16.7,-19.6 -25.4,-29.8 -7.1,8.3 -13.6,16 -20,23.7 -0.8,1 -1.3,2.3 -1.3,3.6 0.3,7.4 0.8,14.8 1.3,22.2 0,0.7 0.2,1.3 0.2,2 0.3,10.5 0.7,20.9 1,31.4 0.7,26.9 2.2,53.8 1.7,80.7 -0.4,21.4 -4.4,42.7 -17,60.8 -4,5.7 -11,9.9 -17.4,13.2 -10.8,5.7 -22.6,8.5 -34.7,4.8 -13.1,-4.1 -21.1,-13.9 -26.4,-26.1 -2,-4.7 -3.4,-9.6 -5.5,-14.2 -2.6,-5.7 -6.9,-7 -12.6,-4.4 -8.1,3.8 -13.8,10.3 -19.3,17.2 -9,11.2 -14,24.3 -19.2,37.4 -2.9,7.5 -6.9,14.6 -12,20.9 -9,11 -18.4,9.4 -28.1,-2.6 -9.4,-11.6 -13.3,-25.4 -14.4,-40.1 -0.3,-3.4 -0.1,-7 -1.2,-10.2 -0.6,-1.8 -3,-3.6 -5,-4.2 -11.2,-3.2 -22,-7.2 -31.6,-14.1 -10.8,-7.8 -18.7,-17.6 -23.4,-30.3 -6,-16 -9.3,-32.9 -9.9,-50 0,-0.4 -0.2,-0.8 -1.3,-1.4 -0.4,2.1 -0.8,4.2 -1.2,6.3 -1.7,8.7 -6.9,15.5 -12.7,21.8 -18.9,20.5 -41.2,37.6 -65.9,50.6 -8.9,4.5 -18.4,7.7 -28.2,9.5 -8.4,1.5 -16.8,-3.4 -23,-13.1 -5.8,-9.2 -5.8,-19.2 -5.6,-29.3 0.4,-22.2 8,-42.4 17.1,-62.2 0.7,-1.4 1.4,-2.8 2.6,-5.5 l -85.2,18 -0.5,-1.3 c 3.7,-1.9 7.2,-4.1 11,-5.7 16.8,-6.9 33.9,-13.2 50.5,-20.5 21.9,-9.5 43.6,-19.8 63.8,-32.8 14.9,-9.5 29.9,-19 44.9,-28.3 3.3,-2 3.9,-4.4 2.6,-7.8 -0.3,-1.1 -0.7,-2.2 -1.1,-3.3 -5.6,-10.5 -3.9,-21.1 -0.5,-31.7 0.7,-2.1 1.1,-4.4 2.8,-7 l 15.4,35.6 c 7.7,-6.5 14.9,-12.2 21.7,-18.4 5.7,-5.2 11,-10.9 16.5,-16.4 4.7,-4.7 5,-7.8 1.9,-13.5 -10.7,-19 -20.4,-38.7 -32.3,-56.9 -6.8,-10.3 -2.4,-19.8 -2.5,-29.7 0,-0.6 0.8,-1.3 1.4,-2.2 4.4,4.6 8.7,8.9 12.7,13.4 5.7,6.5 11.3,13 16.7,19.7 1.1,1.4 1.3,3.4 1,5.8 l -9.3,-4.9 -0.9,1.1 c 3.7,5.9 7.7,11.6 10.9,17.7 4.1,7.8 9.3,15.6 10.8,24 3.2,17.2 1.7,34.4 -10.9,48.3 -8.5,9.4 -17.7,18.1 -26.9,26.9 -2.8,2.7 -3.3,5 -2,8.6 6.9,19.2 10.9,39.1 13.7,59.3 0.8,5.4 0.7,10.9 1.1,16.3 0.2,1.3 0.4,2.6 0.8,3.9 3.5,-8 6.2,-16.6 10.8,-23.9 3.1,-5 8.6,-8.6 13.4,-12.2 19.8,-14.9 41.5,-27.2 64.5,-36.4 -1.5,-3.1 -2.5,-6.3 -4.5,-8.9 -7.3,-9.8 0,-31.5 12.2,-35.9 5.3,-1.8 11.1,-1.1 15.7,1.9 5.5,3.3 10.8,6.9 15.8,10.9 5,4.3 9.7,9 14,13.9 1.3,1.4 2.4,3.8 2.1,5.6 -0.8,5.5 -2.1,10.9 -3.8,16.1 -2.1,6.3 -8.5,5.1 -13.3,6.5 -6.7,2 -13.6,3.5 -20.3,5.5 -1.1,0.3 -2,2.2 -2.4,3.6 -0.4,1.4 -0.2,3.1 -0.4,6.1 l -4.7,-7.9 c -25.5,8.5 -49.1,20.1 -70.7,36.3 51.9,1.5 103.5,0.3 156.2,-2 -2.8,7.7 -5.4,14.8 -8.2,21.9 -0.4,0.9 -2.1,1.8 -3.3,1.7 -9.4,-0.1 -18,3.2 -26.6,6.4 -28.2,10.2 -56.4,20.3 -84.4,30.8 -8.1,3 -16,6.8 -23.9,10.5 -1.7,0.8 -3,2.5 -4.7,4 4.3,6.3 9.5,11 15.8,13.7 9.3,3.9 19,6.8 28.5,10.2 1.2,0.5 3.1,1.8 3.1,2.8 0.3,7.5 0.1,14.9 0.1,23.1 l -16.2,-2.2 c 0.4,4 0.1,8 1.3,11.5 2.9,8.2 5.6,16.8 10.2,24.2 9,14.6 20.1,10.2 27.3,-1.3 5.6,-8.9 9.7,-19 13.6,-28.8 7,-17.2 16.3,-32.5 30.7,-44.4 4.1,-3.4 9.1,-5.8 14.1,-7.7 4.5,-1.8 9.3,2.1 11.9,8 3.8,8.5 7.3,17.2 12,25.2 5.4,9 14.1,13.4 24.8,13.6 14.8,0.6 29.2,-4.3 40.6,-13.7 2,-1.8 3.2,-4.3 3.4,-7 0,-17.9 -0.2,-35.9 -0.6,-53.8 -0.4,-17 -1.2,-34 -2,-51 -0.5,-11.9 -1.2,-23.8 -2,-35.6 -0.3,-4.4 -0.9,-8.9 -1.5,-14.3 l -22.7,25.6 c 2.2,3.3 4.3,6.5 6.5,9.7 11.6,17.2 12,35.9 6,54.8 -1.7,5.2 -7.1,9.7 -11.7,13.5 -8.6,7.1 -18.4,11.9 -29.9,12.6 -7.9,0.5 -12.6,-5.1 -13.4,-11.2 -0.9,-8.3 -0.9,-16.7 0.1,-25.1 1.2,-11.3 4.2,-22.2 10.6,-31.9 3.5,-5.4 7.1,-10.7 11.2,-17 l -117,-108.6 -70.7,36.9 -0.9,-1.5 65.6,-41 c -6.6,-6.9 -13.2,-13.2 -19.2,-20 -11.7,-13.5 -23,-27.2 -34.5,-40.8 -2,-2.4 -4,-5.3 -6.7,-6.5 -4.3,-1.9 -5.2,-4.6 -5.1,-8.9 0.1,-6.2 -0.6,-12.4 -1.1,-20.1 19.5,15.8 40.9,26.9 57.2,44.5 l -0.9,1.8 c -2.9,-0.9 -5.9,-1.6 -8.8,-2.8 -2.9,-1.2 -5.8,-2.8 -8.7,-4.2 l -0.9,1 c 0.7,1.3 1.5,2.6 2.5,3.8 12.7,12.8 25.4,25.5 38.2,38.2 2,2 3.6,2.9 6.2,0.7 11.1,-9.7 22.5,-19.2 33.6,-29 1.5,-1.4 2.5,-3.4 4.1,-5.7 -4.4,-2.6 -8.6,-5 -12.7,-7.7 -7.8,-5.1 -9.5,-10.6 -6.8,-19.5 2.4,-8 6,-14.7 14.2,-18.4 4.6,-2.1 8.9,-1.3 11.5,3.2 4.3,7.4 3.6,15.5 2.5,23.2 -1.1,8.3 -1.7,8.2 5,13 5.4,3.8 6.7,8.7 4.5,14.6 -1,2.6 -1.8,3 -4.1,1.2 -11.6,-9.1 -11.5,-8.9 -19.1,3.4 -2.6,4.2 -6.5,7.8 -10.1,11.3 -6.4,6.2 -13,12.2 -19.6,18.3 8,7.2 15.9,14.3 23.7,21.4 17.9,16.2 35.9,32.4 53.7,48.8 12.1,11.2 24,22.8 36.3,34.5 3.1,-3.7 6.3,-7.7 9.7,-11.6 5.5,-6.4 11.1,-12.8 16.9,-18.9 4.9,-5.1 3.9,-11.1 3.4,-17.2 -0.2,-1.6 -0.5,-3.3 -0.6,-4.9 -0.7,-15.6 -1.3,-31.1 -2.1,-46.7 -0.2,-1.6 -0.9,-3.1 -2.1,-4.2 -12.5,-13.4 -25.2,-26.6 -37.8,-39.9 -3.2,-3.4 -6.1,-6.9 -9.9,-11.2 -0.3,2.3 -0.5,3.5 -0.5,4.6 0,20 0.5,40 -0.2,60 -0.5,15.9 -2.1,31.8 -7.8,46.9 -0.7,1.5 -1.5,2.9 -2.4,4.3 l -1.4,-0.4 c 0,-4.4 0.1,-8.7 0,-13 -0.1,-6.8 -0.3,-13.7 -0.5,-20.5 0,-1.6 -0.3,-3.3 -0.4,-5 -0.4,-17.6 -0.5,-35.2 -1.1,-52.9 -0.4,-13.3 -0.7,-26.7 -2.3,-39.9 -0.5,-4.1 -4.6,-8 -7.5,-11.7 -15,-19.1 -30.1,-38.2 -45.3,-57.1 -1.6,-2.1 -3.4,-4.6 -5.7,-5.5 -4.7,-1.9 -5.3,-5.2 -5.2,-9.5 0.2,-6.5 0,-12.9 0,-19.5 12.6,5.8 54.5,43.3 54.1,49 l -15.8,-7.3 -1.3,1.5 22.9,26.6 1.4,-0.4 c -0.4,-6.2 -0.8,-12.3 -1.2,-18.5 -0.4,-5.9 -0.8,-11.9 -1.1,-17.8 -0.4,-9.1 -0.8,-18.2 -1,-27.3 -0.1,-4.2 -1.2,-6.5 -6,-6 -19.3,2 -35.5,-14.1 -37.6,-31 -1.6,-12.8 -0.4,-26 0.3,-39 0.4,-8.1 2.3,-16.2 3.4,-24.3 0,-1.2 -0.1,-2.3 -0.4,-3.5 l -1.8,-0.5 c -2.8,6.3 -6.3,12.4 -8.1,18.9 -3.6,13.4 -6.3,27 -9.2,40.6 -3,14 -5.6,28.1 -16.3,38.9 -0.7,1 -1.1,2.1 -0.9,3.3 0.7,11.2 1.6,22.4 2.2,33.6 1.3,21.5 3.1,42.9 3.4,64.4 0.3,15.1 -0.2,30.3 -5,45 -0.9,2.9 -1.8,5.8 -2.8,8.6 h -1.6 c -0.6,-4.2 -1.5,-8.3 -1.7,-12.5 -0.3,-8.9 0.1,-17.8 -0.2,-26.7 -0.3,-7.4 -1.3,-14.8 -1.9,-22.1 -1.3,-16.8 -2.7,-33.5 -4,-50.3 -0.7,-9.7 -1.3,-19.4 -2,-29.1 -0.3,-3.9 -0.5,-7.9 -1.1,-11.8 -0.4,-1.2 -1.1,-2.3 -2.2,-3 -11.6,-8.2 -17.5,-19.8 -19.7,-33.5 -0.1,-0.9 -0.7,-1.7 -1.7,-3.9 -3.1,14.8 -8.6,26.7 -23.1,30.8 -14.1,4 -25.6,-2.2 -36.1,-11.7 -3,8.8 -6.5,17.3 -8.5,26.1 -0.9,3.9 0.8,9 2.8,12.8 2.7,5.1 7.1,4.3 9.4,-1.2 0.3,-1 0.8,-2 1.5,-2.9 0,5.8 -2.2,11.4 -6.1,15.7 -2.2,2.5 -5.9,1.2 -8,-2.6 -4.2,-7.4 -3.8,-15.2 -1.4,-22.9 2.4,-7.7 5.6,-15.3 8.3,-23 0.5,-1.3 0.7,-3.4 0,-4.4 -6.6,-9.2 -10.8,-19.9 -12.3,-31.2 -0.1,-0.4 -0.5,-0.8 -1.2,-1.9 -1.7,7.1 -2.8,13.6 -4.9,19.8 -3.2,9.8 -7.6,19 -15.1,26.3 -8.2,7.9 -8.1,8 -6.8,19.2 1.1,9.5 2.3,18.9 3.4,28.6 l 15.6,-6.9 c 0,4.6 -0.7,8.4 0.2,11.7 1.4,5.4 6.4,7.6 11.2,8.7 12.4,2.8 21.3,-2.6 27.8,-12 4.1,-5.9 7.2,-12.5 11,-18.6 1.2,-1.9 3.2,-3.3 4.9,-5 l 1.3,0.8 c -0.6,2.9 -1.5,5.7 -1.7,8.6 -0.1,2.4 -0.2,5.5 1,7.3 6.1,9 18.2,13 28.9,10 4.8,-1.3 5.8,-2.8 3.2,-6.9 -3.8,-6 0.9,-11.1 0.9,-16.7 0,-3.3 1.3,-6.6 3.3,-10.4 1.7,5.1 4.4,10.1 4.8,15.2 1.1,12 -1.2,24.1 -6.6,34.8 -3.5,7.1 -13.6,10 -21.5,8.4 -10.7,-2.1 -18.6,-7.6 -21.5,-18.8 -0.1,-0.6 -0.8,-1 -1.8,-2.3 -2,3.9 -3.5,7.4 -5.4,10.7 -5.7,9.7 -13,17.5 -25,18.7 -12,1.2 -19.2,-3.5 -23.5,-14.7 -0.3,-0.9 -0.6,-1.8 -0.9,-2.7 l -1.6,-0.6 c -0.7,1.6 -2,3.3 -1.9,4.9 0.5,12.4 1.2,24.8 2,37.2 0.5,7.4 2.2,14.9 1.8,22.2 -0.8,12.3 -2.5,24.6 -4.4,36.8 -1.1,6.1 -2.7,12.1 -4.9,17.9 -3.3,9 -10.1,15.7 -17.6,21 -16.6,11.7 -33,23.9 -50.6,33.9 -21,12 -43.1,23 -67.5,25.8 -24,2.8 -46.4,-2 -63.8,-20.6 -10.6,-11.4 -16.5,-25 -18.6,-40.5 -3.9,-28.9 5.1,-54.8 18,-79.8 3,-5.8 6.3,-11.5 9.6,-17.4 -2.8,-2.3 -6.2,-4.5 -8.7,-7.4 -7.5,-8.6 -8.6,-19 -9.2,-30 -0.7,-13.3 2.3,-25.7 6.4,-37.9 6.3,-19.1 15.8,-36.7 25.8,-54 6.2,-10.8 13.3,-21 20,-31.5 0.7,-1.1 1.5,-2 2.3,-3.1 l 1.2,0.6 c -3,5.6 -5.6,11.4 -9,16.8 -12.9,20.4 -24.9,41.3 -31.8,64.7 -4.3,14.5 -5.8,29 -1.8,43.8 0.7,2.9 2,5.6 3.7,8 6.8,8.9 17,9.7 23.5,-3 1.4,-2.7 1.7,-6 2.5,-9.1 -2.6,0.9 -5.3,1.7 -7.9,2.6 -1.7,0.6 -3.3,1.4 -5.7,2.5 1.4,-4.2 1,-8.2 5.8,-10.2 13.2,-5.7 26.2,-12 39.4,-17.6 17,-7.2 34.2,-14 51.4,-20.9 1.1,-0.3 2.2,-0.5 3.4,-0.5 -1.2,4.9 -3.7,7.4 -8.2,9.1 -17.4,6.8 -34.7,14.2 -51.9,21.5 -5.4,2.3 -10.7,5 -16.3,7 -4.8,1.8 -6.9,5.3 -7.5,10 -1.6,11.6 -6.6,21.9 -12.7,31.7 -3.7,5.9 -4,12.6 -3.1,19.1 0.9,6.5 2.9,12.7 4.9,18.9 1.8,5.7 4.5,6.3 9.6,3.1 15.8,-9.9 30.7,-21 43.9,-34.1 1.2,-1.2 2.3,-2.4 3.6,-3.8 -4.7,-2.9 -9.3,-5.5 -13.7,-8.4 -5.7,-3.7 -7.4,-8.8 -5.8,-15.3 1.7,-7 4,-13.3 10.6,-17.5 11.4,-7.2 17,-1.9 18.3,9.4 0.6,5.3 -0.3,10.9 -1.4,16.2 -0.7,3.7 0,5.7 3.2,7.7 6.9,4.3 8.5,10.8 5,18.9 l -13.8,-10.1 c -13,19.7 -31.3,32.7 -50.7,45.3 6.6,6.3 13.5,9.9 21.8,10.5 16.6,1.1 31.6,-3.8 46.3,-11.3 18.4,-9.5 34.8,-21.6 50.1,-35.4 6.1,-5.5 11.5,-11.9 17.7,-17.4 5.2,-4.5 2.7,-8 -0.4,-12 -6.3,2 -12.6,4 -19,5.9 -8.4,2.5 -17.4,2.5 -25.8,0 -7.8,-2.4 -12,-9.2 -12.6,-17.6 -0.8,-12.1 3,-22.9 10.5,-32 10.3,-12.8 21.1,-13.9 34.4,-2.4 6.1,5.3 10.6,12.6 15.9,18.8 0.8,1 2.2,2.2 3.4,2.2 6.6,0 11.6,-6.2 10.9,-12.6 -0.9,-10.3 -1.8,-20.5 -2.7,-30.7 -0.2,-2.9 -0.7,-3.9 -4,-3.7 -14.7,0.9 -25.5,-5.7 -33,-18.1 -6.4,-10.6 -8.1,-22.3 -7,-34.3 1,-11.4 3,-22.7 4.5,-34.1 0.4,-2.8 0.3,-5.7 0.4,-8.6 l -2,-0.6 c -2.8,5.9 -6.4,11.6 -8.1,17.8 -3.6,13.1 -6.4,26.4 -9.1,39.6 -2.4,11.6 -5.2,23 -11.3,33.3 -1.8,3 -4.8,5.6 -7.7,7.7 -4.2,3.1 -10.5,2 -15.4,-2.2 -10.7,-9.2 -16,-21.5 -19.2,-34.8 -1.6,-6.5 -2.4,-13.2 -3.7,-20.9 l -35.7,21.5 -0.4,-0.6 16.3,-12.4 c 6,-4.6 12.6,-8.6 17.8,-13.9 2.2,-2.2 1.9,-7 2.5,-10.7 0.6,-3.7 1.1,-7.5 1.6,-11.3 l 1.7,0.1 v 15.5 l 1.3,0.8 c 4.1,-3.3 8.4,-6.4 12.3,-9.9 6.3,-5.5 12.3,-11.3 18.6,-16.9 3.1,-2.8 1.3,-4.7 -1.2,-6.3 -1.8,-1.2 -3.9,-1.8 -5.6,-3 -4.3,-3.2 -6.9,-7.3 -5.6,-13.1 1.6,-7 4.1,-13.2 12,-15.2 4.4,-1.1 6,2.6 6.4,5.2 1,6.9 1.1,13.9 1.6,22.3 3.6,2.5 10.3,5.2 6.6,14.1 l -10.1,-6.7 c -6.5,12.5 -16.6,21 -26.8,29.4 -2.6,2.1 -5.2,4.1 -7.6,6.4 -0.9,0.9 -1.3,2.2 -1.2,3.4 2,12.3 4.2,24.7 11.9,35 2.5,3.3 5.5,6 9,8.2 3.8,2.4 7.8,1.5 11.4,-1.5 9,-7.5 11.6,-18.1 13.8,-28.7 3.5,-16.8 6,-33.9 12.2,-50 4,-10.3 9.2,-20 17.3,-27.8 3.1,-3 5.3,-2.5 5.4,1.7 0.2,7.7 0.6,15.5 -0.8,23 -2.4,13.2 -4.4,26.5 -3.3,39.9 1.2,14.3 8.6,28.2 22,32.1 8.6,2.5 8.9,2.5 8.2,-6.1 -1.4,-16.4 -3.3,-32.8 -4.9,-49.2 -0.9,-9.2 -1.2,-18.4 -2.1,-27.6 -1.2,-12.9 -0.4,-26.7 -4.6,-38.6 -4.7,-13.2 4.3,-21.7 6.1,-32.8 9.4,23.6 20.7,46.3 24.7,71.5 l -2.2,1.2 -10.4,-15.7 -1.4,0.2 10.3,94.2 c 10.2,-5.1 16.3,-12.4 20.5,-21.4 6.9,-14.8 5.4,-30.1 2.5,-45.4 -2,-10.6 -5.4,-21.1 -6.1,-31.8 -0.5,-6.7 2.7,-13.6 4.4,-20.4 0.6,-2.4 1.8,-4.6 3.4,-6.5 2.1,6.6 4.9,13.1 6.2,19.9 2.8,15 4.9,30.1 7.2,45.2 2,12.9 2.8,26.1 11,37.3 10.9,14.8 30.1,19.6 46.2,9 3.8,-2.5 4.2,-5.7 2.7,-9.6 -3.1,-8.3 -6.4,-16.5 -9,-25 -5.1,-17.1 -9.8,-34.3 -14.7,-51.4 -0.1,-0.8 -0.4,-1.6 -0.9,-2.2 -5.1,-5.4 -3,-11.2 -1.1,-17.1 1.3,-4 2.3,-8 3.8,-13.2 7.2,15.4 17.4,27.9 22.4,43.1 l -1.4,1 -7.5,-7.1 -1.1,0.4 c 0.5,2.9 1.2,5.7 2,8.5 3.9,10.8 8.5,21.3 11.8,32.2 2.4,7.7 3.9,15.6 4.5,23.6 1.1,13 5.3,24.5 13.8,34.4 1.2,1.4 3.1,2.3 5.7,4.2 l -9,-102.4 -13.4,9.4 -0.5,-0.7 c 3.9,-3 8.2,-5.6 11.5,-9.1 1.7,-1.8 2.2,-5.3 2.1,-8 -0.2,-5.4 -1.3,-10.8 -1.8,-16.2 -1.1,-12 -0.1,-24.5 -3.6,-35.8 -3.3,-10.8 3.1,-17.9 4.7,-26.7 0.4,-1.2 0.9,-2.4 1.5,-3.5 4.8,4.8 22.2,58.1 21.8,67.2 -6,-2.8 -6.5,-9.6 -11.8,-14.5 l 2.6,26 c 9.4,-7.8 18.2,-14.4 26.1,-22 7,-6.8 12.9,-14.7 19.3,-22.1 z m 254.5,244.5 c 0.9,-0.3 1.6,-0.3 1.8,-0.6 9.2,-13.2 18.3,-26.3 27.4,-39.6 2.2,-3.2 2,-6.6 0.1,-10.2 -5.8,-10.8 -10.9,-22 -17,-32.7 -13.3,-23 -29.6,-44.2 -48.5,-63 -8,-8 -16.6,-15.5 -25.3,-22.8 -10.3,-8.7 -20.8,-17.1 -31.4,-25.4 -6.1,-4.8 -12.5,-9 -19.3,-13.9 0,2.2 -0.3,3.6 0,4.9 3.7,14.2 6.8,28.7 11.3,42.6 7,21.8 10.3,43.1 0.7,65.2 -5.6,13 -17.8,20.3 -32,17.4 -2.6,-0.5 -5.2,-1 -7.7,-1.5 2.3,7.4 4.5,14.5 6.8,21.5 4.8,15 9.6,29.9 14.2,44.9 0.6,1.8 0.1,4 0.1,6 l -2,0.5 -9.6,-14.7 -1.2,0.4 c 0.4,5.2 1,10.4 1.3,15.6 0.7,11.2 1.4,22.4 2,33.7 0.8,15 1.1,30 2.2,45 0.4,5.6 0.4,12.5 3.5,16.3 8.2,9.9 18.1,18.5 27.6,27.9 6.4,-7.4 12.3,-14.9 19.1,-21.6 4.2,-4.2 4,-8.8 3.7,-13.6 -0.5,-9.4 -1.4,-18.8 -1.9,-28.2 -0.8,-13.4 -1.4,-26.8 -2,-40.2 -0.7,-16 -1.3,-32.1 -2,-48.1 -0.5,-10.6 -1.3,-21.1 -1.9,-31.7 -1,-18.6 -1.8,-37.3 -3.2,-56 -0.4,-5.8 -2.2,-11.4 -3.3,-17.1 -0.2,-0.6 -0.2,-1.2 -0.1,-1.7 3.1,-8.4 6.3,-16.7 9.6,-25.2 0.7,0.6 1.1,0.7 1.2,1 6.9,22.1 13.8,44.2 20.5,66.4 0.8,2.6 0.1,5.7 0.1,8.5 l -1.8,0.5 -9,-15.2 c -0.9,1.6 -1.2,3.4 -1.1,5.2 1,15.5 2,31 3,46.5 1,16 2.2,32 3,48 1.2,23.1 2,46.3 3.1,69.4 0.1,2.6 0.5,5.3 1,9.1 6.1,-7.5 11.5,-14 16.7,-20.5 8.4,-10.4 16.8,-20.7 25,-31.2 1,-1.5 1.4,-3.3 1.3,-5.1 -0.2,-7.9 -0.6,-15.9 -0.9,-23.8 -0.7,-16.2 -1.3,-32.4 -2,-48.6 -0.3,-7.3 -0.6,-14.5 -1,-21.8 0,-0.8 -0.2,-1.6 -0.6,-2.3 -3.1,-3.5 -1.4,-6.8 0,-10.3 1.4,-3.5 2.5,-6.8 3.8,-10.1 1,-2.6 2.1,-5.1 3.2,-7.7 1.7,3.1 3,6.4 3.8,9.9 5.7,18.4 11.5,36.8 17,55.2 0.7,2.2 0.1,4.9 0.1,7.3 l -1.7,0.5 -9.7,-15.1 -1,0.5 z M 46.6,359.5 c -6.3,3.3 -12.8,6.7 -19.4,10 -9.5,4.8 -9.9,5.3 -8.7,16 0.1,1.3 0.7,2.5 0.9,3.8 6,32.7 30.5,50.9 61.7,52.2 17.4,0.8 33.6,-5 49.7,-10.8 21.1,-7.6 41.2,-17.9 59.6,-30.7 10.1,-6.9 20,-14.3 29.7,-21.8 3.5,-2.8 6.2,-6.3 5.7,-11.7 -0.8,-7.2 -0.7,-14.5 -1.1,-21.8 -1,-16.2 -1.9,-32.3 -3,-48.5 -0.5,-6.6 -1.4,-13.2 -2.2,-20.2 -4.6,1.7 -9,2.3 -9.8,7.6 -0.5,2.9 -0.6,5.9 -1.1,8.8 -1.3,8.6 -3.5,17 -8.7,24.2 -7.7,10.6 -16.8,20.1 -27.2,28.2 -16.6,13.1 -33.6,25.8 -53.5,33.7 -9.4,3.7 -19,7 -29.4,7 -9.5,0 -18.5,-1.8 -26.6,-7.1 -1.8,4.6 -3.8,8.8 -5.1,13.2 -2,6.9 -3.5,13.9 2,20.1 2.7,3.1 5.3,2.6 7.7,-0.4 0.9,-1.1 1.7,-2.4 2.5,-3.6 -0.4,3.8 -1.5,7.5 -3.2,10.9 -2.3,4.3 -7,5 -9.4,1.3 -2,-3 -3.3,-6.3 -3.8,-9.9 -1.2,-11.5 3.8,-21.7 7.3,-31.7 z m 192.3,106.4 c -3.8,2.6 -6.7,4.7 -9.7,6.6 -9.6,6.2 -19.3,12.3 -28.9,18.5 -16.3,10.7 -32.6,21.6 -51.6,27.5 -1.4,0.5 -2.8,2.3 -3.5,3.9 -2.4,5.4 -4.5,10.9 -6.6,16.4 -5.7,14.8 -10.5,29.9 -7.2,46 2.4,11.7 9.3,21.1 23.2,20.5 7.6,-0.4 15.5,-2.9 22.4,-6.2 28.6,-13.6 54.1,-32.9 74.9,-56.7 3.1,-3.5 6.8,-6.8 4.9,-13 -3.1,-9.8 -4.7,-20 -7.5,-29.9 -3,-10.9 -6.7,-21.8 -10.4,-33.6 z M 486.6,148.7 c -0.9,0.4 -1.2,0.5 -1.4,0.7 -0.3,0.4 -0.6,0.8 -0.7,1.2 -2.9,18.6 -9.6,35.3 -23.9,48.4 -1.3,1.4 -2,3.2 -2,5.1 0.8,11 2.1,22 2.8,33 0.9,16 1.3,32.1 2.2,48.1 0.3,5.2 0,10.8 4.2,15.1 7.1,7.3 14.1,14.7 21.2,22.1 5.2,5.5 10.3,11.1 15.6,16.6 2.9,3 6,6 8.9,8.9 l 1.4,-0.7 c -0.5,-2.3 -0.8,-4.6 -1.1,-6.9 -1.1,-20.3 -2.1,-40.6 -3,-60.9 -0.4,-9.4 -0.5,-18.9 -1.1,-28.3 -0.4,-7.5 0.4,-15.8 -2.4,-22.4 -3.3,-7.9 0.1,-13.7 2,-20.2 1.1,-3.7 2.7,-7.2 4.2,-11.1 -19.9,-10.2 -24.9,-28.6 -26.9,-48.7 z M 298.5,599.5 c 1.8,-6 2.9,-11.8 5.3,-17.1 2,-4.5 4.6,-9.6 8.5,-12.3 15,-10.6 32.5,-15.9 49.8,-21.4 3.8,-1.2 7.4,-2.7 11.1,-4 L 373,544.1 H 271.8 c 2.5,26.7 14.2,48 26.7,55.4 z m 188.2,-94.1 c -3.2,3.8 -5.4,6.2 -7.4,8.8 -8,10.5 -15.2,21.3 -19.3,34 -1.2,3.7 0.6,6.1 3.3,7.2 2.7,1.1 6.4,1.8 9.2,1 11.8,-2.8 22.9,-8.2 32.4,-15.7 2.7,-2.2 4.1,-4.7 1.7,-8 -6.4,-8.8 -12.9,-17.7 -19.9,-27.3 z M 17.7,372.5 c 8.9,-5.8 16.7,-10.7 24.3,-16 1.4,-1 2.8,-3.6 2.4,-4.9 -3.9,-13.5 -2,-26.8 0.3,-40.2 0.2,-1.4 -0.2,-2.8 -0.4,-4.2 -1.2,0.9 -2.9,1.6 -3.5,2.8 -6.7,15.1 -13.4,30.1 -19.5,45.4 -2,5 -2.4,10.8 -3.6,17.1 z m 567.3,17.4 -1.4,-0.5 c -2.6,2.8 -5.5,5.4 -7.7,8.5 -6.8,9.1 -6.7,9.2 1.2,17.7 2.7,2.9 5.4,5.7 8,8.4 z m -171.4,-68.4 1.9,-0.5 c -1,-5.1 -1.6,-10.3 -3,-15.3 -1.1,-3.8 -3.4,-6.8 -8.2,-6.2 -4.1,0.5 -7.9,2 -9.4,6.1 -1.5,4.1 2.5,5.1 4.9,6.8 4.5,3.1 9.2,6 13.8,9.1 z M 182.1,266.7 c -4.7,-5.8 -9.5,-8.8 -15.3,-10.5 -4.6,-1.6 -9.7,0.1 -12.4,4.2 -2.6,3.5 -2.1,6 2.3,6.2 8.1,0.4 16.2,0.1 25.4,0.1 z m -65.5,25.1 c 0,-4.5 0.4,-7.5 -0.1,-10.5 -0.7,-4.3 -2,-9.4 -6.9,-9.5 -4,0 -8.1,2.7 -11.9,4.6 -0.4,0.2 0.1,3.9 1.1,4.6 5.3,3.7 11,6.8 17.8,10.8 z M 389.1,456 c -8.8,-5.7 -15.9,-12.4 -27.5,-9.9 l 9.1,15.7 z m 144.6,-58.4 -1.4,0.2 1.6,31 c 4.7,-5.4 8.5,-9.6 12,-14.1 0.6,-0.8 -0.3,-3.3 -1.2,-4.4 -3.6,-4.4 -7.3,-8.5 -11,-12.7 z M 138.4,108.2 c 0.2,-7.3 1.1,-13.8 -4.5,-17 -1.9,-1.1 -6.3,2.2 -9.6,3.4 l -0.4,2.3 z m 263,-73.8 c -3.2,-2.1 -6.2,-4.6 -9.7,-6.2 C 387.6,26.4 385.4,22 386.2,17.6 387.3,11 389,4.2 396.7,1 c 3.9,-1.6 6.3,-0.6 7.6,2.5 1.3,3.2 2,6.6 2,10 0,3.7 -0.9,7.4 -1.4,10.9 10.4,7.3 11,8.3 8.7,15.1 l -12.3,-5.3 z m 2.1,-10 c 0,-3.6 0.3,-6.1 -0.1,-8.5 -1.2,-7.6 -6.1,-9.6 -12,-4.8 -2.6,2.1 -3.6,4.5 0.2,6.6 z m 32.6,359.2 c -1.5,3.5 -2.8,7.4 -4.9,10.7 -1.2,2 -4.4,4.7 -5.6,4.3 -2.6,-1.2 -4.7,-3.3 -5.8,-6 -3.1,-8.2 -0.9,-16.4 1.7,-24.3 0.6,-2 1.6,-3.8 3,-5.4 -0.9,2.8 -1.6,5.6 -2.1,8.5 -0.4,3.5 -0.4,7.1 -0.2,10.6 0.2,3.8 2.4,7.4 6,7.3 2.5,-0.1 4.9,-3.5 7.9,-5.7 z m 7,177.7 c 0.5,5 -1.7,7.3 -5.1,8.8 -28.3,12 -56.5,24 -84.8,36 -0.5,0.1 -1.1,0.2 -1.6,0.2 -0.4,-5.2 1.7,-8.5 6.6,-10.5 22.5,-9.3 45,-18.8 67.5,-28.1 5.5,-2.2 11.2,-4.1 17.4,-6.4 z m 6.6,-79.6 c -2.1,2.3 -3.8,5.8 -6.5,6.8 -21.8,8.4 -43.8,16.4 -65.7,24.4 -1.1,0.4 -2.4,0.7 -3.7,1.1 0.4,-6.7 4.7,-9 9.9,-10.8 21.5,-7.5 43,-15.1 64.6,-22.8 z m 10.1,189.4 c -6.4,8.9 -12.7,17.8 -24.1,20.6 -7.3,1.8 -14.4,5.4 -22.4,2.7 -5.3,-1.8 -7.1,-4.8 -6,-10.4 2,-10 8.1,-17 16.1,-22.8 -4.3,-2.6 -6.5,-2.6 -17.4,0.1 1.8,-7.4 4.6,-9.7 11.7,-9.7 2,0 4,0 6,0 5.4,0.1 7,2 4.1,6.5 -3.9,6 -9,11.1 -13.3,16.8 -1.7,2.3 -2.6,5.3 -3.9,8 2.8,1.2 5.5,3.2 8.4,3.5 14.3,1.5 26.3,-4.3 37.2,-12.9 1.1,-0.7 2.3,-1.5 3.6,-2.4 z m 17.6,-442.2 c 15.7,19.4 18.8,41 11,65.4 -0.4,-1.7 -0.8,-2.4 -0.6,-3 5.2,-19.3 -0.1,-36.2 -11.6,-51.7 -2.4,-3.2 -2.2,-5.1 1.2,-10.7 z m 0.2,178.9 c -0.3,3.9 -0.8,7.7 -0.9,11.6 -0.1,2.6 -0.3,5.6 0.9,7.6 1.5,2.4 4.4,5.2 6.8,5.3 3.6,0.2 6.3,-3 6.2,-6.9 -0.1,-4.2 -1.1,-8.5 -1.3,-12.7 -0.1,-2.9 0.5,-5.8 0.8,-8.8 l 1.9,-0.1 c 0.8,4.6 1.9,9.1 2.3,13.8 0.5,5.2 2.2,9.3 7.4,11.1 1.2,0.4 3.5,0.8 3.9,0.2 0.7,-1.4 0.9,-2.9 0.6,-4.5 -0.8,-3.2 -2.3,-6.1 -3,-9.3 -0.9,-3.6 -1.3,-7.3 -1.2,-11.1 4.2,9 8.3,18.1 6.2,28.2 -0.5,2.3 -3.8,5.8 -5.6,5.7 -2.7,-0.1 -5.4,-2.8 -7.7,-4.8 -1.2,-1 -1.5,-3.1 -2.5,-5.2 -1.2,2.9 -2.1,5 -2.9,7.1 -1.2,3.6 -3.2,6.3 -7.3,6.3 -4.3,0 -6.3,-3.3 -7.4,-6.7 -0.8,-2.8 -1.2,-5.8 -1,-8.7 0.3,-6.1 1,-12.3 1.6,-18.4 z m 40.3,184.5 c -0.9,5.5 -3.7,8.4 -8.8,10.5 -13.9,5.6 -27.4,12.1 -41.5,18.4 0.6,-5 2.1,-8.3 7.3,-10.4 13.9,-5.6 27.5,-11.9 41.2,-17.9 0.6,-0.3 1.2,-0.5 1.8,-0.6 z m 12.2,-467 c -1.2,4.2 -2,8.5 -3.6,12.6 -1.6,4.1 -4.4,4.6 -7.8,2 -5.5,-4.2 -6.9,-10.1 -5.9,-16.4 1.7,-10.3 4.1,-20.5 6.3,-30.7 0.1,-0.6 0.7,-1 2.1,-1.3 -1.8,8.1 -3.6,16.1 -5.4,24.2 -1.2,5.5 -0.6,10.6 3.8,14.5 1.3,1.2 3.6,2.5 5,2.2 1.4,-0.3 2.2,-2.8 3.1,-4.4 0.5,-1 0.9,-2 1.3,-3 z m 15.5,161.9 c 10.3,14.1 18.6,28.1 18.3,45.3 -0.2,11.1 -1.5,22.3 -7.2,32.4 0,-1.3 -0.3,-2.6 0,-3.8 7,-21.5 1.5,-40.5 -12,-57.5 -3.5,-4.4 -1.3,-7.9 -0.7,-11.9 0.4,-1.6 0.9,-3.1 1.6,-4.5 z M 562,208.9 c -2.5,6.8 -5.4,13.4 -7.3,20.3 -1.1,4.2 -1.4,8.5 -0.8,12.8 0.2,1.9 3.1,3.4 4.7,5.1 1.3,-1.5 2.7,-2.9 3.9,-4.4 0.7,-1.1 1.2,-2.3 1.7,-3.5 1,6.5 -2.5,11 -5.2,15.7 -0.4,0.7 -3.4,0.7 -4.5,-0.1 -4.9,-3.3 -5.5,-9.5 -4.6,-13.7 2.4,-11.2 6.6,-22 10.1,-32.9 z m 12.2,280.5 c -1.3,4.1 -2.2,8.5 -4.1,12.4 -2.4,5.1 -6.7,4.9 -10,0.2 -3.7,-5.1 -4.3,-10.9 -3.3,-16.6 2,-10.9 4.9,-21.6 7.4,-32.3 l 1.5,0.3 c -0.7,3.2 -1.5,6.3 -2.1,9.5 -1.5,7 -3.5,14 -4,21.2 -0.2,3.4 2.1,7.5 4.3,10.4 3,3.9 5.6,3.1 7.5,-1.6 0.5,-1.3 1,-2.6 1.5,-3.9 z m 8,75.4 c -0.5,4.2 -1.6,7.3 -5.8,9.2 -9.8,4.5 -19.5,9.5 -29.9,14.6 0.8,-5.4 2.5,-8.6 7,-10.6 9.7,-4 19,-8.6 28.7,-13.2 z m 3.2,-15.6 c -1.4,5.9 -4.3,9.2 -9.5,11.5 -9.1,4 -17.8,8.9 -26.7,13.4 -1.4,-5.5 2.1,-7.5 13.2,-14.1 0,-0.2 -0.1,-0.3 -0.2,-0.4 -3.1,-3 -8,-5.2 -6.3,-10.7 1.6,-6.1 5.8,-11.3 11.5,-14.2 4.9,-2.5 8.7,-1.8 8.8,2 0.1,2.7 -1.4,5.5 -2.3,8.7 -4.6,-5.5 -5.6,-5.5 -13.2,-0.5 4,8.6 13.1,10.2 24.7,4.3 z M 59.1,512.8 c 0.6,-9.1 1,-17.2 1.6,-25.2 0.2,-1.8 0.8,-3.5 1.5,-5.1 1.2,-3.2 3.6,-6.2 6.9,-4.5 2.4,1.3 3.9,4.8 5.2,7.6 0.7,1.5 0,3.5 -0.1,5.4 -0.4,0 -0.9,0.2 -1,0.1 -2,-2.7 -4.3,-6.3 -7.8,-4.1 -2.2,1.4 -3.6,5.4 -3.9,8.3 -0.5,7 -0.1,14 -0.2,21 0,3 -0.7,5.9 -1.9,8.6 -2.6,-4.8 -5.3,-9.6 -7.7,-14.5 -2.9,-5.8 -7.5,-9.2 -13.7,-11 -5.2,-1.5 -7.4,-9.3 -3.8,-13.3 2.2,-2.4 5.1,-1.2 6.9,0.9 4.6,5.5 9,11.2 13.3,17 1.8,2.4 2.9,5.3 4.7,8.8 z M 627.4,232.2 c -1.7,5.4 -3,11 -5.1,16.2 -1.7,4.1 -4,4.2 -7.2,1.3 -4.4,-4.1 -5.4,-9.7 -4.8,-14.9 1.2,-10.3 3.5,-20.6 5.6,-30.8 2.9,-14.3 3.1,-28.2 -3.9,-41.6 -5.4,-10.3 -5.2,-10.4 -0.8,-17.8 3.1,8.1 6.9,16 9,24.4 3.8,14.9 -1,29.2 -4.2,43.7 -1.3,5.9 -2.1,11.9 -2.4,18 0,2.6 0.7,5.1 2.2,7.3 1,1.4 3.6,2.8 5.2,2.5 1.4,-0.3 2.6,-2.7 3.6,-4.4 0.5,-1.3 0.9,-2.7 1.1,-4.2 z m 3.1,132 c -1.7,6.1 -3.5,12.1 -5.1,18.2 -2,7.7 -4.6,15.4 -5.6,23.3 -0.5,3.6 1.5,8.1 3.7,11.2 2.9,4.2 7.2,3.3 9.6,-1.4 1.1,-2.3 1.7,-4.8 3.3,-7.3 0,2.6 0.6,5.4 -0.1,7.7 -1.5,5 -3.5,9.8 -5.9,14.4 -2.5,4.6 -5.6,4.7 -9.4,0.9 -6.4,-6.5 -6.5,-15.1 -4.9,-22.9 3,-14.2 7.7,-28 11.8,-42 0.4,-0.9 1,-1.8 1.6,-2.6 z m 5.3,-97.9 c 1,7.3 -4.5,9.2 -9.5,11.8 -9.2,4.8 -18.3,9.9 -27.8,15.1 0.4,-4.4 0.6,-7.7 5.4,-10 10.9,-5.1 21.4,-11.2 31.9,-16.9 z m 50.6,22.7 c -1.9,5.9 -4,11.6 -5.6,17.6 -1,4 -1.2,8.1 1.7,11.8 3.5,4.5 5.8,4.4 8.6,-0.7 0.5,-1.2 1.5,-2.1 2.6,-2.5 -1.8,4.1 -3.4,8.4 -5.5,12.3 -1.8,3.5 -4.9,3.4 -7.5,0.4 -3.8,-4.3 -4,-9.6 -2.9,-14.5 1.9,-8.4 4.9,-16.5 7.5,-24.7 z m 6.4,145.6 c -1.7,4.1 -3.3,8.3 -5.3,12.2 -0.8,1.5 -3.1,3.7 -4,3.4 -2,-0.8 -3.7,-2.3 -4.7,-4.2 -3.4,-5.7 -2,-11.7 -0.1,-17.6 2.5,-7.9 5.1,-15.7 7.7,-23.6 l 1.4,0.5 c -1.7,4.9 -3.5,9.7 -5.1,14.6 -1.6,4.9 -5.1,9.6 -2.3,15 1.3,2.5 3.6,4.6 5.5,6.9 1.7,-2.2 3.3,-4.4 5,-6.6 0.3,-0.3 0.7,-0.6 1.1,-0.9 z m 11,-76.2 c -0.5,-0.7 -1,-1.3 -1.6,-1.9 -1.5,-1.2 -3.1,-2.4 -4.6,-3.6 -1.4,1.9 -3.6,3.5 -4.1,5.6 -1.7,7.5 -2.8,15.1 -4.2,22.6 -0.3,2 -1.1,3.8 -2.3,5.4 -1.2,-3.4 -2.2,-6.9 -3.5,-10.2 -2.4,-6.1 -5.8,-11.2 -11.6,-14.8 -6.5,-4.1 -6.8,-7 -1.5,-14 10.1,6.7 13.6,17.4 18.2,27.9 1,-5.2 1.8,-10.5 3.1,-15.6 0.9,-4.1 2.4,-8.1 4.3,-11.8 2.5,-4.5 5.8,-4.4 7.9,0.2 1.3,2.9 1,6.6 1.4,9.9 z M 76,229 c 1.3,-8.8 2.4,-16.7 3.7,-24.6 0.3,-2.1 1,-4.2 2.1,-6 1.3,-1.8 3.3,-3.1 5,-4.7 1.8,2.1 4.2,4 5.3,6.5 0.9,2.1 0.2,4.8 0.2,8.4 -1.4,-1.8 -2,-2.8 -2.8,-3.4 -1.5,-1.1 -3.3,-2.8 -4.7,-2.6 -1.4,0.2 -3.1,2.4 -3.5,4 -1.3,6.1 -2.1,12.2 -3,18.4 L 76,239.8 c -3.1,-6 -6.1,-10.4 -7.6,-15.3 -1.8,-6.1 -6.8,-8.1 -11.3,-10.8 -4,-2.4 -4.9,-10.2 -1,-12.6 0.9,-0.5 3.2,0.4 4.3,1.3 7.2,6.2 11,14.6 14,23.4 0.5,1 1,2.1 1.6,3.2 z"
     id="path1" />
</svg>
