<?xml version="1.0" encoding="UTF-8"?>
<svg width="96.573mm" height="54.246mm" version="1.1" viewBox="0 0 96.573 54.246" xmlns="http://www.w3.org/2000/svg">
 <g transform="translate(100.83 -121.71)">
  <path d="m-34.018 121.71-1.9844 9.525h3.9688zm26.458 0-1.9844 9.525h3.9688zm-89.958 8e-3 -1.9844 9.525h3.9688zm76.729 6.8626s-0.0093 0.60584-0.32246 0.80202c-0.28287 0.17722-0.82513 0.0196-1.1493 0.28939-0.32878 0.27361-0.46238 0.34647-0.51263 1.5544h3.9688c-0.05025-1.208-0.18385-1.2808-0.51263-1.5544-0.32415-0.26976-0.86642-0.11217-1.1493-0.28939-0.31313-0.19618-0.32246-0.80202-0.32246-0.80202zm-63.5 8e-3s-0.0093 0.60584-0.32246 0.80202c-0.28287 0.17722-0.82513 0.0196-1.1493 0.28939-0.32878 0.2736-0.46238 0.34647-0.51263 1.5544h3.9688c-0.05025-1.208-0.18385-1.2808-0.51263-1.5544-0.32415-0.26976-0.86641-0.11217-1.1493-0.28939-0.31312-0.19614-0.32246-0.80199-0.32246-0.80199zm61.516 2.9022v1.5875h1.3229v-1.5875zm2.6458 0v1.5875h1.3229v-1.5875zm10.583 0v1.5875h1.3229v-1.5875zm2.6458 0v1.5875h1.3229v-1.5875zm-92.604 8e-3v1.5875h1.3229v-1.5875zm2.6458 0v1.5875h1.3229v-1.5875zm10.583 0v1.5875h1.3229v-1.5875zm2.6458 0v1.5875h1.3229v-1.5875zm47.625 0v1.5875h1.3229v-1.5875zm2.6458 0v1.5875h1.3229v-1.5875zm9.2604 1.8438 1.0583 1.3229h4.4979l1.0583-1.3229zm13.229 0 1.0583 1.3229h4.4979l1.0583-1.3229zm-89.958 8e-3 1.0583 1.3229h4.4979l1.0583-1.3229zm13.229 0 1.0583 1.3229h4.4979l1.0583-1.3229zm50.271 0 1.0583 1.3229h4.4979l1.0583-1.3229zm14.552 1.5792v0.79375h1.3229v-0.79375zm2.6458 0v0.79375h1.3229v-0.79375zm10.583 0v0.79375h1.3229v-0.79375zm2.6458 0v0.79375h1.3229v-0.79375zm-92.604 8e-3v0.79375h1.3229v-0.79375zm2.6458 0v0.79375h1.3229v-0.79375zm10.583 0v0.79375h1.3229v-0.79375zm2.6458 0v0.79375h1.3229v-0.79375zm47.625 0v0.79375h1.3229v-0.79375zm2.6458 0v0.79375h1.3229v-0.79375zm9.2604 1.0501 1.0583 1.3229h4.4979l1.0583-1.3229zm13.229 0 1.0583 1.3229h4.4979l1.0583-1.3229zm-89.958 8e-3 1.0583 1.3229h4.4979l1.0583-1.3229zm13.229 0 1.0583 1.3229h4.4979l1.0583-1.3229zm50.271 0 1.0583 1.3229h4.4979l1.0583-1.3229zm1.3229 1.5875v22.481h1.3229v-22.481zm13.229 0v27.781h1.3229v1.3229h-1.3229v3.9688h3.9688v-3.9688h-1.3229v-1.3229h1.3229v-27.781h-1.3229v26.458h-1.3229v-26.458zm13.229 0v33.073h1.3229v1.3229h-1.3229v3.9688h3.9688v-3.9688h-1.3229v-1.3229h1.3229v-33.073h-1.3229v31.75h-1.3229v-31.75zm-89.958 8e-3v33.073h1.3229v1.3229h-1.3229v3.9688h3.9688v-3.9688h-1.3229v-1.323h1.3229v-33.073h-1.3229v31.75h-1.3229v-31.75zm13.229 0v27.781h1.3229v1.3229h-1.3229v3.9688h3.9688v-3.9688h-1.3229v-1.3229h1.3229v-27.781h-1.3229v26.458h-1.3229v-26.458zm52.917 0v23.804h-2.6458v3.9688h9.2604v-7.9292h-1.3229v6.6063h-1.3229v-6.6063h-1.3229v6.6063h-1.3229v-26.45zm-42.995 2.373s-0.0093 0.60585-0.32246 0.80202c-0.28287 0.17722-0.82513 0.0196-1.1493 0.28939-0.32878 0.2736-0.46238 0.34647-0.51263 1.5544h3.9688c-0.05025-1.208-0.18385-1.2808-0.51263-1.5544-0.32415-0.26976-0.86641-0.11217-1.1493-0.28939-0.31313-0.19618-0.32246-0.80202-0.32246-0.80202zm34.396 0s-0.0093 0.60586-0.32246 0.80202c-0.28287 0.17722-0.82513 0.0196-1.1493 0.28939-0.32878 0.27361-0.46238 0.34647-0.51263 1.5544h3.9688c-0.05025-1.208-0.18385-1.2809-0.51263-1.5545-0.32415-0.26976-0.86642-0.11216-1.1493-0.28939-0.31313-0.19618-0.32246-0.80202-0.32246-0.80202zm-36.38 2.9104v0.79375h1.3229v-0.79375zm2.6458 0v0.79375h1.3229v-0.79375zm31.75 0v0.79375h1.3229v-0.79375zm2.6458 0v0.79375h1.3229v-0.79375zm-38.365 1.0583 1.0583 1.3229h4.4979l1.0583-1.3229zm34.396 0 1.0583 1.3229h4.4979l1.0583-1.3229zm-33.073 1.5875v0.79375h1.3229v-0.79375zm2.6458 0v0.79375h1.3229v-0.79375zm31.75 0v0.79375h1.3229v-0.79375zm2.6458 0v0.79375h1.3229v-0.79375zm-38.365 1.0583 1.0583 1.3229h4.4979l1.0583-1.3229zm34.396 0 1.0583 1.3229h4.4979l1.0583-1.3229zm-7.276 1.5875s-0.0425 2.0532-1.1906 2.7202c-1.0372 0.60255-3.0117 0.0668-4.2003 0.98392-1.2055 0.93026-1.7009 1.1846-1.8852 5.2917h14.552c-0.18424-4.1071-0.67963-4.3614-1.8852-5.2917-1.1885-0.91717-3.1631-0.38137-4.2003-0.98392-1.1481-0.667-1.1906-2.7202-1.1906-2.7202zm-25.797 8e-3v17.198h9.2604v-3.9688h-2.6458v-3.9688h-1.3229v6.6146h-1.3229v-15.875h-1.3229v15.875h-1.3229v-15.875zm34.396 0v15.867h-1.3229v-6.6146h-1.3229v6.6146h-1.3229v-6.6146h-1.3229v3.9688h-2.6458v3.9688h9.2604v-17.19zm2.6458 0v17.19h1.3229v-17.19zm-39.026 3.9605-0.66146 5.0271h1.3229zm42.333 0-0.66146 5.0271h1.3229zm23.812 0.78549s-0.01556 0.96768-0.53744 1.2816c-0.47145 0.28356-1.3697 0.0314-1.91 0.46302-0.54796 0.43777-0.77615 0.55601-0.8599 2.4887h6.6146c-0.08374-1.9328-0.31193-2.051-0.8599-2.4888-0.54025-0.43161-1.4385-0.17947-1.91-0.46302-0.52188-0.31389-0.53744-1.2816-0.53744-1.2816zm-76.729 8e-3c0-1e-5 -0.01556 0.96769-0.53744 1.2816-0.47145 0.28355-1.3697 0.0314-1.91 0.46302-0.54796 0.43777-0.77615 0.55601-0.8599 2.4887h6.6146c-0.08374-1.9328-0.31193-2.0511-0.8599-2.4888-0.54025-0.43161-1.4385-0.17946-1.91-0.46302-0.52188-0.31389-0.53744-1.2816-0.53744-1.2816zm26.458 0s-0.01556 0.96769-0.53744 1.2816c-0.47146 0.28356-1.3697 0.0314-1.91 0.46302-0.54797 0.43777-0.77615 0.55601-0.8599 2.4887h6.6146c-0.08374-1.9327-0.31193-2.051-0.8599-2.4887-0.54025-0.4316-1.4385-0.17946-1.91-0.46302-0.52187-0.31379-0.53744-1.2815-0.53744-1.2815zm37.042 0s-0.01556 0.96768-0.53744 1.2816c-0.47145 0.28356-1.3697 0.0314-1.91 0.46302-0.54796 0.43777-0.77615 0.55601-0.8599 2.4887h6.6146c-0.08374-1.9327-0.31193-2.051-0.8599-2.4887-0.54025-0.4316-1.4385-0.17947-1.91-0.46302-0.52188-0.31379-0.53744-1.2815-0.53744-1.2815zm-43.656 1.5875c0-1e-5 -0.0093 0.60584-0.32246 0.80201-0.28287 0.17723-0.82514 0.0196-1.1493 0.28939-0.32878 0.27362-0.46238 0.34647-0.51263 1.5544h3.9688c-0.05025-1.208-0.18385-1.2808-0.51263-1.5544-0.32415-0.26974-0.86641-0.11216-1.1493-0.28939-0.31313-0.19616-0.32246-0.80201-0.32246-0.80201zm19.182 2.9021v2.6458h1.3229v-2.6458zm26.458 0v18.521h1.3229v-18.521zm7.9375 0v15.875h1.3229v-15.875zm5.2917 0v18.521h1.3229v-18.521zm-82.021 8e-3v18.521h1.3229v-18.521zm5.2917 0v15.875h1.3229v-15.875zm7.9375 0v18.521h1.3229v-18.521zm10.583 0v2.6458h1.3229v-2.6458zm2.6458 0v10.583h14.552v-1.3229h-13.229v-9.2604zm2.6458 0v7.9375h1.3229v-7.9375zm2.6458 0v7.9375h9.2604v-3.9688h-2.6458v-3.9688h-1.3229v6.6146h-1.3229v-6.6146h-1.3229v6.6146h-1.3229v-6.6146zm7.9375 0v2.6458h1.3229v-2.6458zm15.875 0v9.2604h-13.229v1.3229h14.552v-10.583zm23.812 0v17.198h-3.9688v-2.6458h-3.9688v3.9688h9.2604v-18.521zm-76.729 8e-3v18.521h9.2604v-3.9688h-3.9688v2.6458h-3.9688v-17.198zm35.719 5.2834h1.3229v1.3229h-1.3229zm5.2917 0h1.3229v1.3229h-1.3229zm15.875 0h1.3229v1.3229h-1.3229zm-37.042 8e-3h1.3229v1.3229h-1.3229zm35.719 3.9605v3.9688h2.6458v1.3229h-2.6458v3.9688h9.2604v-3.9688h-2.6458v-1.3229h2.6458v-3.9688h-3.9688v6.6146h2.6458v1.3229h-3.9688v-7.9375h-1.3229v2.6458h-1.3229v-2.6458zm-42.333 8e-3v3.9688h2.6458v1.3229h-2.6458v3.9688h9.2604v-3.9688h-2.6458v-1.3232h2.6458v-3.9688h-1.3229v2.6458h-1.3229v-2.6458h-1.3229v7.9375h-3.9688v-1.3229h2.6458v-6.6146zm48.948 1.3144h1.3229v1.3229h-1.3229zm7.9375 0h1.3229v1.3229h-1.3229zm-63.5 8e-3h1.3229v1.3229h-1.3229zm7.9375 0h1.3229v1.3229h-1.3229zm9.2604 1.3146v6.6146h9.2604v-1.3229h-7.9375v-5.2917zm2.6458 0v3.9688h7.9375v2.6458h3.9688v-1.323h-2.6458v-1.3229h2.6458v-3.9688h-3.9688v2.6458h-1.3229v-2.6458h-1.3229v2.6458h-1.3229v-2.6458h-1.3229v2.6458h-1.3229v-2.6458zm13.229 0v3.9688h2.6458v1.3229h-2.6458v1.3229h3.9688v-2.6458h7.9375v-3.9688h-1.3229v2.6458h-1.3229v-2.6458h-1.3229v2.6458h-1.3229v-2.6458h-1.3229v2.6458h-1.3229v-2.6458zm13.229 0v5.2917h-7.9375v1.3229h9.2604v-6.6146zm-17.198 1.3229h1.3229v1.3229h-1.3229zm5.2917 0h1.3229v1.3229h-1.3229zm15.875 2.6458h1.3229v1.3229h-1.3229zm13.229 0h1.3229v1.3229h-1.3229zm13.229 0h1.3229v1.3229h-1.3229zm-89.958 8e-3h1.3229v1.3229h-1.3229zm13.229 0h1.3229v1.3229h-1.3229zm13.229 0h1.3229v1.3229h-1.3229z"/>
 </g>
</svg>
